<?xml version="1.0" encoding="UTF-8"?>
<svg viewBox="0 0 493.71 555.85" xmlns="http://www.w3.org/2000/svg" xmlns:xlink="http://www.w3.org/1999/xlink">
 <defs>
  <linearGradient id="g" x1=".068063" x2=".87213" y1=".51378" y2=".51378" xlink:href="#b"/>
  <linearGradient id="a">
   <stop stop-color="#dc0000" offset="0"/>
   <stop stop-color="#ffb200" offset="1"/>
  </linearGradient>
  <linearGradient id="d" x1="-.48333" x2=".63333" y1="-.27344" y2=".92969" xlink:href="#c"/>
  <linearGradient id="f" x1=".26668" x2=".53334" y1="1.2812" y2=".35938" xlink:href="#a"/>
  <linearGradient id="e" x1=".07431" x2=".88615" y1=".51289" y2=".51289" xlink:href="#b"/>
  <linearGradient id="c">
   <stop stop-color="#fff" offset="0"/>
   <stop stop-color="#fff" stop-opacity="0" offset="1"/>
  </linearGradient>
  <linearGradient id="b">
   <stop stop-color="#fff" stop-opacity=".449" offset="0"/>
   <stop stop-color="#fff" stop-opacity="0" offset="1"/>
  </linearGradient>
  <linearGradient id="h" x1="1.8289" x2=".15789" y1=".085938" y2=".92969" xlink:href="#c"/>
  <linearGradient id="n" x1=".21429" x2=".45238" y1=".91406" y2=".24219" xlink:href="#a"/>
  <linearGradient id="m" x1=".70835" x2=".50002" y1=".90625" y2=".46094" xlink:href="#a"/>
  <linearGradient id="i" x1=".21952" x2=".7927" y1=".86719" y2=".125" xlink:href="#a"/>
  <linearGradient id="l" x1="-.56" x2=".26" y1=".125" y2="1.0078" xlink:href="#c"/>
  <linearGradient id="j" x1="-.56422" x2=".69058" y1=".021769" y2=".99064">
   <stop stop-color="#fff" offset="0"/>
   <stop stop-color="#fff" stop-opacity="0" offset="1"/>
  </linearGradient>
  <linearGradient id="k" x1=".080902" x2=".92084" y1=".5347" y2=".5347" xlink:href="#b"/>
 </defs>
 <g fill-rule="evenodd" stroke-opacity=".504" stroke-width="2.156">
  <g stroke="#ff0">
   <path d="m-321.78 597.28c102.02 294.98 263.43 451.41 552.74 469.29 318.25 99.817 613.65-104.29 529.9-424.6-38.068 68.531-62.431 105.78-127.91 125.14 25.886-177.29-140.09-207.08-59.386-397.78 56.34-117.69 89.84-262.21-9.1363-379.9-41.113 134.08-91.362 223.47-191.86 321.8 10.659-163.88 98.976-296.47 45.681-451.41 7.6135-104.29-167.5-101.31-169.02-420.13-111.16 137.06-158.36 242.84-141.61 451.41-41.113 168.35-141.61 229.43-123.34 411.19-15.227-101.31-25.886-189.21-4.5682-263.7-12.182-92.368-24.363-171.33-118.77-236.88 28.932 114.72 62.431 287.53-36.545 330.74-27.409 55.123-164.45 244.33-13.704 540.8-44.158-25.327-88.317-32.776-132.48-75.98z" fill="url(#n)"/>
   <path d="m198.98 1021.9c-242.11-250.29-283.22-424.6-123.34-589.96 179.68-312.86 135.52-509.52 4.5681-697.23 123.34 415.66-146.18 683.82-232.97 804.5-51.772-156.43-7.6136-223.47 63.954-415.66-140.09 148.98-225.36 329.25-173.59 500.58 94.408 257.74 316.72 314.35 461.38 397.78z" fill="url(#m)"/>
  </g>
  <path d="m93.182-265.75c3.3424 71.081 23.998 141.47 14.539 213.22-8.3435 167.5-83.566 325.02-187.41 456.14-19.265 26.782-39.782 52.671-59.633 79.038-26.545-86.532-14.562-179.84 21.19-261.95 18.827-43.877 32.041-89.417 38.955-136.59-99.243 88.579-169.28 209.32-193.95 338.57-19.993 119.53 22.986 242.43 104.04 332.26 101.91 117.64 248.45 183.73 390.47 242.82-80.478-110.76-192.51-210.69-216.3-350.62-16.32-81.253 16.382-162.8 70.921-223.55 62.429-83.918 101.31-183.74 124.41-284.5 29.998-131.23 5.9509-273.12-67.353-386.92-18.088-12.938-50.41-80.918-39.877-17.896z" fill="url(#l)"/>
  <path d="m216.11-496.12c-79.057 101.56-112.58 231.25-102.51 357.72 7.5312 61.842-26.074 119.42-49.997 174.66-43.991 82.349-83.786 172.28-71.757 267.43-3.4698 54.824-28.364-0.45194-25.743-28.027-11.922-77.568-17.021-158.01-0.7586-234.85-8.1968-74.774-27.556-155.83-90.666-204.97 18.74 88.757 43.092 188.79-2.1421 273.59-16.229 28.41-52.532 36.178-60.119 70.292-76.157 130.53-81.895 293.26-24.076 431.45 12.033 31.474 27.728 61.519 41.352 92.363-42.434-23.706-89-39.793-130.01-65.778 56.81 162.75 164.83 322.86 335.36 386.2 67.06 27.932 140.19 33.117 211.04 44.143 155.29 47.432 348 16.266 450.46-115.95 60.197-76.493 76.92-179.72 56.428-272.96-27.117 53.658-74.106 97.146-134.79 110.92 13.963-68.89-7.2954-137.83-43.672-196.75-39.269-62.873-48.502-142.35-17.164-210.28 47.549-101.97 83.489-225.36 28.113-331.49-17.137-48.991-29.201-18.918-37.883 15.783-36.206 108.97-109.32 201.66-192.06 281.15 5.7294-111.17 45.372-216.35 62.219-325.63 9.6198-55.67-1.4312-111.54-13.344-165.45-8.1091-60.579-72.639-91.654-99.865-143.53-48.519-68.995-64.656-154.75-67.489-237.12-6.9757 9.0284-13.952 18.057-20.927 27.085z" fill="url(#j)"/>
  <path d="m308.62 1021.9c94.408-52.143 120.29-216.02 132.48-397.78 22.84-175.8 68.522-351.6 370.02-379.9-123.34 96.838-223.84 216.02-178.16 438-12.182 323.29-257.34 311.37-324.34 339.68z" fill="url(#i)" stroke="#ff0"/>
  <path d="m776.37 218.51c-128.56 17.834-261.08 93.403-298.81 221.76-60.554 160.43-27.093 343.03-109.68 497.13-31.365 13.336-23.697 70.547 15.038 59.354 113.46-20.127 221.14-97.244 249.88-210.42 27.723-78.592 12.003-161.74 9.054-242.46 3.7724-117.08 73.058-222.66 164.02-294.89 15.922-22.437-10.633-29.984-29.496-30.471z" fill="url(#h)"/>
  <path d="m144.16 901.2c-12.182-143.02-28.932-245.82 155.32-375.43 312.16-213.04 158.36-336.7-36.545-558.68 57.863 220.49-35.022 396.29-114.2 513.98-51.772 73.001-231.45 221.98-4.568 420.13z" fill="url(#f)" stroke="#ff0"/>
  <path d="m258.24-69.867c33.774 150.31-1.0106 308.66-78.756 440.72-48.267 90.786-143.43 160.32-152.5 268.33-14.546 94.125 54.773 172.58 119.01 233.4 26.164 32.188 3.738-43.906 7.299-61.719-10.439-92.599 5.7936-196.5 82.167-260.02 85.028-80.933 206.3-137.04 247.03-253.36 27.548-102.73-45.858-194.82-109.88-267.77-38.613-45.84-79.322-89.8-119.8-134.09 1.8126 11.5 3.6252 23.001 5.4378 34.502z" fill="url(#d)"/>
  <path d="m491.27 26.498c-32.455-92.353-5.9704-112.13 22.459-152.48 29.327-11.175 20.338-50.14 36.341-136.92 24.231 96.854 89.28 140.89-58.8 289.39z" fill="#ffd700" stroke="#ff0"/>
  <path d="m539.82-252.57c-9.8676 41.171-5.4069 86.544-23.728 124.95-42.928 32.086-61.647 91.708-42.823 142.31 5.8445 42.407 19.401 49.724 43.434 10.999 51.316-51.664 99.33-125.69 70.111-199.72-13.184-37.758-24.728-76.092-39.414-113.36-2.5264 11.608-5.0529 23.216-7.58 34.824z" fill="url(#k)"/>
  <path d="m678.68 684.1c83.749-78.96 66.999-113.23 59.386-169.84-24.363-26.816 6.0905-62.572 36.545-160.9-77.658 87.899-169.02 99.817-95.931 330.74z" fill="#ffd700" stroke="#ff0"/>
  <path d="m762.54 351.46c-51.807 53.655-126.97 103.87-125.15 186.36-3.8293 59.105 17.683 115.46 31.063 172.19 44.972-41.987 96.09-96.682 79.617-162.9-0.11713-29.177-22.592-54.699-4.948-83.128 16.947-45.016 34.675-89.81 46.446-136.56-9.0079 8.0074-18.016 16.015-27.024 24.022z" fill="url(#g)"/>
  <path d="m-2.4581-33.242c84.307-94.981 62.655-134.08 48.885-199.47-29.291-30.147 0.6923-72.859 24.687-188.19-76.771 105.11-175.85 122.6-73.572 387.66z" fill="#ffd700" stroke="#ff0"/>
  <path d="m59.991-421.67c-49.09 62.808-123.53 120.76-119.63 207.82-0.5288 72.379 28.628 139.91 50.423 207.82 44.506-49.706 91.857-112.83 72.048-182.87 0.13574-27.712-19.705-49.228-20.277-75.401 10.846-61.782 33.287-121.46 42.154-183.8-8.2391 8.8135-16.478 17.627-24.717 26.44z" fill="url(#e)"/>
 </g>
</svg>
