<?xml version="1.0" encoding="UTF-8"?>
<svg viewBox="0 0 319.8656 638.6864" xmlns="http://www.w3.org/2000/svg">
 <defs>
  <linearGradient id="b" x1="-2874.6" x2="-2656.1" y1="569.82" y2="600.46" gradientUnits="userSpaceOnUse">
   <stop stop-color="#fff" offset="0"/>
   <stop stop-color="#fff" stop-opacity="0" offset="1"/>
  </linearGradient>
  <radialGradient id="a" cx="-2628.7" cy="677.82" r="159.93" gradientTransform="matrix(1.5674 -.54434 .78525 2.2612 947.17 -2182.3)" gradientUnits="userSpaceOnUse">
   <stop stop-color="#405789" offset="0"/>
   <stop stop-color="#607ab4" offset=".51597"/>
   <stop stop-color="#789ac9" stop-opacity="0" offset="1"/>
  </radialGradient>
 </defs>
 <g transform="translate(2851.3 -255.81)">
  <path d="m-2693 255.81c-19.751 90.864-49.694 179.51-89.086 263.74-19.854 42.453-42.192 84.02-56.133 128.77s-19.02 93.852-3.8584 138.2c13 38.022 40.91 70.725 76.421 89.529s78.251 23.509 117 12.87 73.096-36.514 94.005-70.828 28.156-76.706 19.822-116.02c-7.5883-35.794-27.234-67.872-49.186-97.144s-46.572-56.611-66.299-87.427c-48.996-76.539-64.819-173.54-42.686-261.69" fill="#87bafb"/>
  <path d="m-2693 255.81c-19.751 90.864-49.694 179.51-89.086 263.74-19.854 42.453-42.192 84.02-56.133 128.77s-19.02 93.852-3.8584 138.2c13 38.022 40.91 70.725 76.421 89.529s78.251 23.509 117 12.87 73.096-36.514 94.005-70.828 28.156-76.706 19.822-116.02c-7.5883-35.794-27.234-67.872-49.186-97.144s-46.572-56.611-66.299-87.427c-48.996-76.539-64.819-173.54-42.686-261.69" fill="url(#a)"/>
  <path d="m-2716.5 394.92c-23.837 73.035-50.954 145-81.24 215.6-9.6097 22.403-19.571 44.759-26.161 68.228s-9.726 48.31-5.4187 72.303c2.3222 12.935 6.8192 25.532 13.726 36.713s16.257 20.921 27.464 27.785 24.287 10.787 37.428 10.647 26.294-4.4301 36.651-12.52c10.562-8.2508 17.946-20.183 21.854-33.004s4.4771-26.502 2.9446-39.817c-3.0651-26.63-14.233-51.522-22.961-76.867-29.697-86.24-31.222-181.93-4.2876-269.07" fill="url(#b)"/>
 </g>
</svg>
